:SAMPLES-PER-SECOND 30
:FULLY-SPECIFIED
:DEGREES
130
root  -75.666 41.1604 -9.45463 90.3773 -88.7984 -95.9742
RightUpLeg  -3.89192 -7.48474 -0.673309
RightLeg  9.09192 -6.38198 4.44665
RightFoot  1.74639 0.709426 -6.06796
RightToes  3.49245e-010 0 -3.6325e-017
Spine  6.3391 0.431678 8.42778
Spine1  5.57373 1.32453 -2.07378
HEad  -13.232 0.859025 -3.11816
LeftShoulder1  4.93027 -7.85555 -37.2414
LeftArm  -7.3077 24.985 -17.8271
LeftForeArm  27.7351 -15.5159 -4.10771
LeftHand  -0.244104 0.0205437 5.32207
RightShoulder  4.64634 7.95747 34.5804
RightArm  -9.06403 -13.627 27.3631
RightForeArm  -2.26282 20.0508 4.99907
RightHand  -1.25624 4.27296 -15.2886
LeftUpLeg  -7.03871 10.2633 5.27373
LeftLeg  11.9695 5.77622 0.530293
LeftFoot  0.398864 0.0393485 -0.347359
LeftToes  1.68253e-010 -2.29257e-011 3.59052e-011
131
root  -76.1035 41.2704 -9.44244 43.6595 -88.8829 -49.0113
RightUpLeg  -3.00241 -7.32111 -1.10207
RightLeg  8.41521 -7.14733 4.07354
RightFoot  1.17562 0.613738 -5.51548
RightToes  3.49245e-010 0 -3.6325e-017
Spine  6.47089 0.32972 5.3543
Spine1  4.1069 0.581866 0.205456
HEad  -12.0502 1.37933 -2.32678
LeftShoulder1  3.90261 -6.50954 -32.9032
LeftArm  -11.6776 25.876 -15.468
LeftForeArm  24.2123 -13.2828 -3.51284
LeftHand  -0.244104 0.0205437 5.32207
RightShoulder  4.02258 7.0567 32.143
RightArm  -13.3972 -14.093 22.0518
RightForeArm  -4.94314 17.0232 5.30959
RightHand  -1.25502 3.99038 -15.7078
LeftUpLeg  -6.1857 8.68401 4.8038
LeftLeg  11.0861 6.37645 0.42218
LeftFoot  0.977957 0.0167283 -0.209244
LeftToes  1.68253e-010 -2.29257e-011 3.59052e-011
132
root  -76.5163 41.3976 -9.42126 2.80966 -88.486 -7.85757
RightUpLeg  -2.0689 -7.33572 -1.73123
RightLeg  7.38989 -7.65884 3.83055
RightFoot  1.07594 0.550032 -4.98342
RightToes  3.49245e-010 0 -3.6325e-017
Spine  6.22955 0.335755 3.22145
Spine1  3.17059 0.339015 1.02362
HEad  -10.7065 0.96562 -1.29966
LeftShoulder1  3.1502 -5.57433 -28.5737
LeftArm  -13.0735 26.009 -11.7859
LeftForeArm  20.9569 -12.7465 -2.99001
LeftHand  -0.244104 0.0205437 5.32207
RightShoulder  3.30732 5.88124 29.2492
RightArm  -15.382 -14.7834 16.5301
RightForeArm  -8.55383 14.2079 5.53809
RightHand  -1.30661 4.20199 -16.0002
LeftUpLeg  -4.87398 7.32653 4.43245
LeftLeg  9.1686 7.18381 -0.269772
LeftFoot  0.585412 0.048502 -0.497306
LeftToes  1.68253e-010 -2.29257e-011 3.59052e-011
133
root  -76.9232 41.5219 -9.33429 -5.00162 -88.3354 0.360748
RightUpLeg  -1.09916 -7.24601 -2.06759
RightLeg  5.91058 -7.73223 3.80649
RightFoot  1.29667 0.516399 -4.57777
RightToes  3.49245e-010 0 -3.6325e-017
Spine  5.25628 0.423814 3.24745
Spine1  2.88302 0.690556 -0.380293
HEad  -8.89983 0.12037 -0.38837
LeftShoulder1  2.50128 -4.7569 -23.9929
LeftArm  -13.0235 25.281 -7.70893
LeftForeArm  20.0614 -13.3724 -2.84634
LeftHand  -0.244104 0.0205437 5.32207
RightShoulder  2.52103 4.37171 25.8945
RightArm  -19.0696 -14.8847 12.0164
RightForeArm  -7.88623 10.8478 4.64595
RightHand  -1.29453 4.48669 -15.3334
LeftUpLeg  -3.30367 6.54155 4.65904
LeftLeg  6.49732 8.08849 -1.73684
LeftFoot  0.921634 0.035493 -0.384306
LeftToes  1.68253e-010 -2.29257e-011 3.59052e-011
134
root  -77.3052 41.6146 -9.20782 -7.47435 -88.3582 3.34671
RightUpLeg  -0.337617 -7.06291 -2.24292
RightLeg  4.53979 -7.76651 3.76317
RightFoot  1.28151 0.472121 -4.1838
RightToes  3.49245e-010 0 -3.6325e-017
Spine  4.08304 0.439253 3.96581
Spine1  2.54929 1.05829 -2.28276
HEad  -6.69694 -0.54324 0.264979
LeftShoulder1  1.82365 -3.60468 -18.9533
LeftArm  -13.3584 24.1506 -4.57185
LeftForeArm  21.0317 -14.8851 -2.77001
LeftHand  -0.244104 0.0205437 5.32207
RightShoulder  1.8068 2.8263 22.3125
RightArm  -20.4727 -14.2765 7.83227
RightForeArm  -8.86575 8.587 4.00829
RightHand  -1.10966 3.36799 -14.638
LeftUpLeg  -2.19263 6.18138 4.89163
LeftLeg  4.54049 8.57058 -3.00302
LeftFoot  1.47283 0.00974679 -0.164106
LeftToes  1.68253e-010 -2.29257e-011 3.59052e-011
135
root  -77.6328 41.6671 -9.09358 -12.0708 -88.0356 8.57619
RightUpLeg  -0.139013 -7.02364 -2.52927
RightLeg  3.95036 -8.00812 3.62711
RightFoot  0.927957 0.414783 -3.79602
RightToes  3.49245e-010 0 -3.6325e-017
Spine  3.06742 0.175792 4.0147
Spine1  2.08365 0.990276 -3.54357
HEad  -5.00259 -0.659265 0.86953
LeftShoulder1  1.06144 -1.74109 -13.1323
LeftArm  -14.3169 22.9097 -3.51136
LeftForeArm  20.7817 -16.6699 -2.84643
LeftHand  -0.244104 0.0205437 5.32207
RightShoulder  1.30232 1.57666 19.1089
RightArm  -7.91362 -12.1016 1.54596
RightForeArm  -25.5522 6.05267 7.98756
RightHand  -1.47447 3.85242 -18.2089
LeftUpLeg  -1.88884 5.76627 4.58599
LeftLeg  3.68276 8.6888 -3.36497
LeftFoot  1.30282 0.00669478 -0.142187
LeftToes  1.68253e-010 -2.29257e-011 3.59052e-011
136
root  -77.8994 41.6909 -9.00076 -13.5445 -87.6465 10.6989
RightUpLeg  -0.446305 -7.06426 -2.76929
RightLeg  4.11948 -8.25298 3.49957
RightFoot  0.504944 0.372502 -3.55429
RightToes  3.49245e-010 0 -3.6325e-017
Spine  2.28539 -0.0657566 3.4668
Spine1  1.6579 0.688613 -3.51283
HEad  -4.1163 -0.527216 0.894268
LeftShoulder1  0.590208 -0.125943 -8.75311
LeftArm  -14.5133 21.601 -2.94728
LeftForeArm  16.4573 -17.9129 -3.24347
LeftHand  -0.244104 0.0205437 5.32207
RightShoulder  0.81894 0.274138 14.885
RightArm  -29.1253 -11.6633 3.00319
RightForeArm  -7.00111 4.83565 0.584058
RightHand  -0.769096 1.27949 -13.4722
LeftUpLeg  -2.02855 5.26151 4.13365
LeftLeg  3.30344 8.82726 -3.25619
LeftFoot  0.787093 -0.000142359 -0.0949967
LeftToes  1.68253e-010 -2.29257e-011 3.59052e-011
